<?xml version="1.0" encoding="iso-8859-1"?>
<!-- Generator: Adobe Illustrator 19.0.0, SVG Export Plug-In . SVG Version: 6.00 Build 0)  -->
<svg version="1.1" id="Layer_1" xmlns="http://www.w3.org/2000/svg" xmlns:xlink="http://www.w3.org/1999/xlink" x="0px" y="0px"
	 viewBox="0 0 512.001 512.001" style="enable-background:new 0 0 512.001 512.001;" xml:space="preserve">
<path style="fill:#FFC61B;" d="M255.314,512.001c-133.123,0-241.429-108.301-241.429-241.423c0-46.161,13.082-91.048,37.833-129.804
	c24.065-37.675,57.995-67.901,98.124-87.414l14.082-6.846c4.193-2.037,9.078-2.097,13.318-0.162
	c4.241,1.936,7.396,5.665,8.602,10.169l18.139,67.698c2.234,8.335-2.712,16.9-11.047,19.134c-8.335,2.234-16.9-2.712-19.134-11.047
	l-13.234-49.392c-33.66,17.021-62.146,42.785-82.516,74.677c-21.537,33.724-32.921,72.796-32.921,112.986
	c0,115.892,94.288,210.178,210.184,210.178s210.184-94.286,210.184-210.178c0-40.492-11.545-79.81-33.387-113.706
	c-1.239-1.925-2.614-3.968-4.204-6.252l-1.081-1.551l-27.16,27.16l0.689,1.073c18.036,28.045,27.569,60.301,27.569,93.278
	c0,95.175-77.433,172.606-172.611,172.606S82.703,365.753,82.703,270.578c0-27.222,6.408-54.275,18.533-78.231
	c2.371-4.684,4.988-9.311,7.783-13.757c4.593-7.305,14.237-9.503,21.54-4.913c7.305,4.591,9.503,14.235,4.913,21.54
	c-2.282,3.632-4.423,7.413-6.358,11.239c-9.922,19.603-15.166,41.776-15.166,64.121c0,77.947,63.416,141.361,141.366,141.361
	s141.366-63.415,141.366-141.361c0-26.974-7.816-53.383-22.604-76.378l-7.5-11.664c-3.976-6.182-3.104-14.299,2.092-19.497
	l49.264-49.265c3.271-3.27,7.83-4.926,12.429-4.515c4.607,0.409,8.795,2.839,11.439,6.635l11.748,16.869
	c1.808,2.596,3.389,4.948,4.832,7.189c25.096,38.947,38.364,84.117,38.364,130.625C496.743,403.7,388.439,512.001,255.314,512.001z"
	/>
<polygon style="fill:#FEE187;" points="326.347,228.922 269.196,15.625 482.493,72.776 "/>
<path style="fill:#FFC61B;" d="M326.347,244.545c-1.348,0-2.706-0.173-4.043-0.533c-5.391-1.445-9.602-5.655-11.047-11.047
	L254.106,19.668c-1.445-5.391,0.097-11.143,4.043-15.091c3.946-3.946,9.695-5.49,15.09-4.043l213.298,57.153
	c5.391,1.445,9.602,5.655,11.047,11.047c1.445,5.391-0.097,11.143-4.043,15.091L337.394,239.969
	C334.426,242.937,330.436,244.545,326.347,244.545z M291.289,37.718l43.146,161.025L452.314,80.864L291.289,37.718z"/>
<g>
</g>
<g>
</g>
<g>
</g>
<g>
</g>
<g>
</g>
<g>
</g>
<g>
</g>
<g>
</g>
<g>
</g>
<g>
</g>
<g>
</g>
<g>
</g>
<g>
</g>
<g>
</g>
<g>
</g>
</svg>
